<svg viewBox="0 0 400 400" fill="none" xmlns="http://www.w3.org/2000/svg">
  <g stroke-width="0"/>
  <g stroke-linecap="round" stroke-linejoin="round"/>
  <path d="M165.875 227.216c27.559-3.624 57.159-3.183 82.734.95m-64.46 11.036c2.156-3.762-.107-7.017-.617-10.511m43.141 9.261v-9.506m-59.821-58.69c1.174-5.725-.601-12.579-1.094-17.483m37.155 25.033c.174-11.978 0-24.065 0-36.111m32.537 23.565a362 362 0 0 1-.545-19.98m-143.498 8.806c-49.286-43.931 13.15-45.53 39.04-5.088m144.344-8.936c18.456-54.509 63.439-31.535 26.902 16.837m-95.214 107.152c20.132-6.289 11.604 16.975-2.175-1.066m6.073 14.445c-7.387 10.208-11.684 11.6-18.192 14.07m22.326-11.238c3.249 7.357 8.582 6.889 13.789 8.741m-108.805-45.071c-14.591-1.603-33.765-2.229-46.38-3.746m47.413 31.702c-12.983 4.524-25.782 9.534-38.86 13.736m242.716-56.598c-13.109 3.117-25.489 9.056-37.606 14.985M328 269.807c-11.961-.924-24.188-1.51-41.222-.4" stroke="#000" stroke-opacity=".9" stroke-width="16" stroke-linecap="round" stroke-linejoin="round"/>
</svg>
